<svg width="24" height="20" viewBox="0 0 24 20" fill="none" xmlns="http://www.w3.org/2000/svg">
<path fill-rule="evenodd" clip-rule="evenodd" d="M1.65451 8.58655C8.09695 5.77968 12.3929 3.92922 14.5424 3.03517C20.6797 0.482475 21.9549 0.0390447 22.7861 0.0244023C22.969 0.0211819 23.3777 0.0664889 23.6425 0.281338C23.8661 0.462753 23.9276 0.707818 23.957 0.879818C23.9865 1.05182 24.0231 1.44364 23.994 1.7498C23.6614 5.24425 22.2223 13.7243 21.4902 17.6382C21.1804 19.2943 20.5704 19.8496 19.9799 19.9039C18.6966 20.022 17.722 19.0558 16.479 18.241C14.534 16.966 13.4352 16.1723 11.5472 14.9281C9.36528 13.4903 10.7797 12.7 12.0232 11.4085C12.3486 11.0705 18.0031 5.9273 18.1125 5.46073C18.1262 5.40237 18.1389 5.18486 18.0097 5.07001C17.8805 4.95516 17.6898 4.99443 17.5522 5.02567C17.3571 5.06995 14.2498 7.12371 8.23048 11.187C7.3485 11.7926 6.54963 12.0877 5.83388 12.0722C5.04481 12.0552 3.52697 11.6261 2.39861 11.2593C1.01463 10.8094 -0.0853289 10.5715 0.0104529 9.80751C0.060342 9.40955 0.608362 9.00257 1.65451 8.58655Z" fill="white"/>
</svg>
